<svg width="50.5" height="50.5" viewBox="0 0 50.5 50.5" version="1.1" xmlns="http://www.w3.org/2000/svg">
    <linearGradient id="gradient" x1="0%" y1="0%" x2="0%" y2="100%">
       <stop offset="0" style="stop-color:#da1196"/>
       <stop offset="100%" style="stop-color:#fc408b" />
    </linearGradient>
	<g transform="matrix(-1,0,0,-1,10.271,43.0164)">
		<path
			d="m 0,0 c -1.475,0.805 -7.077,1.852 -8.391,2.679 -1.473,0.926 -1,6 -1,6 l 1,0.875 c 0,0 0.253,2.293 0.688,3.125 0.973,1.865 2,5 2,5 0,0 1,0.727 1,2 0,1.272 -1,2 -1,2 0,0 0.375,3.54 0.375,6 0,5.168 -3.243,8 -9.073,8 -5.829,0 -10.083,-2.408 -10.083,-8 0,-2.46 0.78,-6 0.78,-6 0,0 -0.999,-0.728 -0.999,-2 0,-1.273 0.999,-2 0.999,-2 0,0 1.168,-3.628 2.001,-5 0.486,-0.803 0.687,-3.125 0.687,-3.125 l 1,-0.875 c 0,0 0.474,-5.074 -1,-6 -1.331,-0.838 -7.301,-1.98 -8.687,-2.788 -5.166,4.263 -8.46,10.715 -8.46,17.938 0,12.838 10.409,23.246 23.246,23.246 12.84,0 23.248,-10.408 23.248,-23.246 C 8.331,10.668 5.093,4.263 0,0 m -14.917,43.016 c -13.909,0 -25.186,-11.277 -25.186,-25.187 0,-13.91 11.277,-25.187 25.186,-25.187 13.911,0 25.188,11.277 25.188,25.187 0,13.91 -11.277,25.187 -25.188,25.187"
			fill="url(#gradient)" 
		/>
	</g>
</svg>