<svg width="50.38" height="50.37" viewBox="0 0 50.38 51"  version="1.1" xmlns="http://www.w3.org/2000/svg">

    <g transform="translate(-174.291,0)">
      <path
         d="m 199.478,0 c -13.909,0 -25.187,11.276 -25.187,25.187 0,13.91 11.277,25.187 25.187,25.187 13.911,0 25.188,-11.277 25.188,-25.187 C 224.666,11.276 213.388,0 199.478,0 z m 14.916,43.016 c -1.475,-0.805 -7.077,-1.852 -8.391,-2.679 -1.474,-0.927 -1,-6 -1,-6 l 1,-0.875 c 0,0 0.253,-2.293 0.688,-3.125 0.973,-1.865 2,-5 2,-5 0,0 1,-0.728 1,-2 0,-1.272 -1,-2 -1,-2 0,0 0.375,-3.54 0.375,-6 0,-5.168 -3.243,-8 -9.073,-8 -5.829,0 -10.083,2.407 -10.083,8 0,2.46 0.781,6 0.781,6 0,0 -1,0.728 -1,2 0,1.272 1,2 1,2 0,0 1.168,3.628 2,5 0.486,0.803 0.688,3.125 0.688,3.125 l 1,0.875 c 0,0 0.473,5.073 -1,6 -1.331,0.838 -7.301,1.979 -8.687,2.788 -5.167,-4.264 -8.46,-10.716 -8.46,-17.938 0,-12.839 10.409,-23.247 23.246,-23.247 12.839,0 23.248,10.408 23.248,23.247 -0.001,7.161 -3.239,13.566 -8.332,17.829 z"
		fill="#929292" 
		 />
    </g>
	

</svg>