<svg width="16.17" height="14.17" viewBox="0 0 291 255" version="1.1" xmlns="http://www.w3.org/2000/svg">

      <path
         d="M 28.844183,253.60632 C 22.060187,251.18302 15.537789,246.67921 7.75,239.04049 L 0,231.43883 0.00938406,145.46942 0.01876812,59.5 2.9312854,54.422164 C 7.3274655,46.757631 14.846116,40.929504 24.471528,37.725115 26.137188,37.170602 37.625,36.443105 50,36.108455 L 72.5,35.5 79.5,21.633487 C 85.608914,9.5321548 87.058417,7.4010914 90.88669,4.8927495 c 2.412679,-1.5808239 6.012679,-3.3258836 8,-3.8779105 2.16478,-0.6013197 21.28119,-1.00592086 47.68517,-1.00926207 48.61206,-0.006151455 49.44267,0.08487584 56.90543,6.23631297 2.95113,2.4325741 5.34739,6.3052301 10.13213,16.3747991 l 6.26685,13.188711 22.31186,0.408536 c 26.15274,0.478862 29.99869,1.448338 39.23566,9.890404 C 291.81329,55.599762 291,47.149806 291,145.59956 l 0,85.9681 -6.71907,6.81885 c -7.86929,7.98616 -13.72158,12.21313 -20.44758,14.76881 -4.61732,1.75444 -10.39421,1.84253 -118.09408,1.80079 -90.555254,-0.0351 -113.971601,-0.30549 -116.895087,-1.34979 z M 167.5,214.63571 c 35.16808,-11.36164 56.33556,-47.46826 48.90833,-83.4258 C 210.87495,104.42111 192.17193,84.284462 165,75.861031 c -10.7059,-3.318881 -28.2941,-3.318881 -39,0 -27.171928,8.423431 -45.874949,28.560079 -51.408328,55.348879 -8.008068,38.76953 16.549641,76.26945 55.908328,85.37267 9.44818,2.18526 27.08165,1.25742 37,-1.94687 z m -33.80152,-21.73124 c -7.00093,-1.64755 -14.81168,-6.07881 -21.12553,-11.98511 -20.087371,-18.79075 -20.928718,-49.06571 -1.91744,-68.99704 18.44661,-19.339345 48.8842,-19.902885 68.42217,-1.26681 12.42548,11.8519 17.86071,30.71992 13.53219,46.9761 -4.46426,16.76601 -19.4216,31.55008 -35.72165,35.30785 -5.28989,1.21952 -17.9401,1.20043 -23.18974,-0.035 z"
		fill="#fff" 
		 />
	
	
</svg>