<svg width="16" height="16" viewBox="0 0 16 16"  version="1.1" xmlns="http://www.w3.org/2000/svg" xmlns:xlink="http://www.w3.org/1999/xlink">


	<path d="m 0.792475,0.0459032 14.444539,0 c 0.414547,0 0.74828,0.33373322 0.74828,0.74828076 l 0,14.44453904 c 0,0.414547 -0.333733,0.74828 -0.74828,0.74828 l -14.444539,0 c -0.41454754,0 -0.74828076,-0.333733 -0.74828076,-0.74828 l 0,-14.44453904 c 0,-0.41454754 0.33373322,-0.74828076 0.74828076,-0.74828076 z M 13.454676,2.513469 c 0,0 -2.541949,-0.3577786 -3.5992072,0.3927811 C 9.6056614,3.0835912 9.2460272,3.3514927 8.8927441,4.0300813 8.5649622,4.659687 8.5649622,5.4135932 8.5649622,5.4135932 l 0,1.9776442 -2.0864901,0 0,2.4010563 2.0864901,0 0.00391,6.1920813 2.4807685,0.0039 0,-6.1959873 2.090472,0 0.314567,-2.4010563 -2.405039,0 c 0,0 0,-1.5186372 0,-1.6696101 0,-0.150973 0,-1.0619403 1.055136,-1.0619403 1.055136,0 1.349903,0 1.349903,0 z"  
		style="fill:#929292;"
	/>

</svg>