<svg width="48" height="41.001999" viewBox="0 0 48 41.001999"  version="1.1" xmlns="http://www.w3.org/2000/svg">

<g fill="#929292" transform="translate(-92.275,-7.073)">
<path
   d="m 136.275,7.073 c 2.209,0 4,1.791 4,4 v 33.002 c 0,2.209 -1.791,4 -4,4 h -40 c -2.209,0 -4,-1.791 -4,-4 V 11.073 c 0,-2.209 1.791,-4 4,-4 h 40 m 0,2 h -40 c -1.103,0 -2,0.897 -2,2 v 33.002 c 0,1.103 0.897,2 2,2 h 40 c 1.103,0 2,-0.897 2,-2 V 11.073 c 0,-1.102 -0.897,-2 -2,-2 l 0,0 z"
/>
<path
   d="m 131.031,31.597 c 1.645,0 2.977,-1.333 2.977,-2.978 V 16.051 c 0,-1.644 -1.332,-2.978 -2.977,-2.978 h -29.777 c -1.645,0 -2.979,1.334 -2.979,2.978 v 12.568 c 0,1.645 1.334,2.978 2.979,2.978 h 29.777 z"
/>
<polygon points="134.008,37.426 98.275,37.426 98.275,37.426 98.275,35.426 134.008,35.426 " />
<polygon points="134.008,42.426 98.276,42.426 98.276,42.426 98.276,40.427 134.008,40.427 "/>
</g>
	

</svg>