<svg width="22" height="35" viewBox="0 0 44 70" version="1.1" xmlns="http://www.w3.org/2000/svg">
    <linearGradient id="gradient" x1="0%" y1="0%" x2="0%" y2="100%">
       <stop offset="0" style="stop-color:#fc408b"/>
       <stop offset="100%" style="stop-color:#da1196" />
    </linearGradient>
    <g transform="translate(-401.53125,-7.1875)" style="fill:url(#gradient);">
      <path
         d="m 405.53125,7.1875 c -2.209,0 -4,1.791 -4,4 l 0,62 c 0,2.209 1.791,4 4,4 l 36,0 c 2.209,0 4,-1.791 4,-4 l 0,-62 c 0,-2.209 -1.791,-4 -4,-4 l -36,0 z m 0,3 36,0 c 0.552,0 1,0.448 1,1 l 0,52.75 -38,0 0,-52.75 c 0,-0.552 0.449,-1 1,-1 z m 18,56.5625 c 1.717,0 3.125,1.402 3.125,3.125 0,1.723 -1.408,3.125 -3.125,3.125 -1.715,0 -3.09375,-1.402 -3.09375,-3.125 0,-1.723 1.37975,-3.125 3.09375,-3.125 z" />
    </g>
</svg>