<svg width="16" height="16" viewBox="0 0 16 16"  version="1.1" xmlns="http://www.w3.org/2000/svg">

    <path d="m 7.6207919,-11.84802 0.7433168,0 0,7.6358918 -0.7433168,0 z m -3.4462871,4.1896042 0,-0.7433168 7.6358912,0 0,0.7433168 z M 0,-7.71875 c 0.045358,1.2883511 0.42425121,2.592687 1.125,3.78125 2.2429048,3.80426417 7.1332358,5.0866548 10.9375,2.84375 3.804264,-2.2429048 5.086655,-7.1644858 2.84375,-10.96875 C 12.663345,-15.866764 7.7417642,-17.117905 3.9375,-14.875 1.323156,-13.332514 -0.09978761,-10.553122 0,-7.71875 z M 0.78125,-7.75 c -0.090232,-2.562954 1.1985043,-5.073972 3.5625,-6.46875 3.4399697,-2.028125 7.846875,-0.87747 9.875,2.5625 2.028125,3.4399697 0.90872,7.8468747 -2.53125,9.875 -3.4399697,2.02812528 -7.8781247,0.90871967 -9.90625,-2.53125 -0.6336454,-1.0747467 -0.95898546,-2.2725208 -1,-3.4375 z"
		transform="matrix(0,1,-1,0,0,0)"
		style="fill:#000000;"
	/>

</svg>