<svg width="16" height="16" viewBox="0 0 16 16" version="1.1" xmlns="http://www.w3.org/2000/svg">

      <path style="fill-rule:evenodd; fill:#b2b2b2;"
         d="m 9.992419,10.027527 c -1.9679272,1.9637 -5.1551405,1.960271 -7.1188397,-0.0077 -1.96369906,-1.9679274 -1.96027157,-5.1551407 0.00766,-7.1188407 1.9679279,-1.9636974 5.1551405,-1.96027113 7.1188397,0.00766 1.963254,1.967483 1.960338,5.1538159 -0.00651,7.1177007 -1.0041253,-0.9754334 -4.9128966,-4.7845276 -0.00115,0.0012 z m 4.83572,5.747591 -4.354373,-4.353243 c -2.3984615,1.736928 -5.926965,1.906273 -8.4763905,-0.492217 -2.5321322,-2.3822205 -2.45138889,-6.4466851 0.00957,-8.9023597 2.4609624,-2.45567711 6.4466855,-2.4513896 8.9023615,0.00957 2.145759,2.1952397 2.460421,5.9916 0.375849,8.4787567 l 4.448964,4.419804" />
</svg>