<svg width="16" height="16" viewBox="0 0 16 16"  version="1.1" xmlns="http://www.w3.org/2000/svg" xmlns:xlink="http://www.w3.org/1999/xlink">

   <linearGradient id="gradient" x1="0%" y1="0%" x2="0%" y2="100%">
       <stop offset="0" style="stop-color:#fc408b"/>
       <stop offset="100%" style="stop-color:#da1196" />
    </linearGradient>

	<path id="asd" d="m 11.78628,11.779238 4.23669,0 0,4.23669 -4.23669,0 z m -5.8612851,0 4.2366901,0 0,4.23669 -4.2366901,0 z m -5.9249949,0 4.23669,0 0,4.23669 -4.23669,0 z m 11.78628,-5.8931406 4.23669,0 0,4.2366896 -4.23669,0 z m -5.8612851,0 4.2366901,0 0,4.2366896 -4.2366901,0 z m -5.9249949,0 4.23669,0 0,4.2366896 -4.23669,0 z m 11.78628,-5.8931398 4.23669,0 0,4.23669 -4.23669,0 z m -5.8612851,0 4.2366901,0 0,4.23669 -4.2366901,0 z m -5.9249949,0 4.23669,0 0,4.23669 -4.23669,0 z"  
		style="fill:url(#gradient);"	
	/>

</svg>