<svg width="16" height="16" viewBox="0 0 16 16"  version="1.1" xmlns="http://www.w3.org/2000/svg" xmlns:xlink="http://www.w3.org/1999/xlink">


	<path id="asd" d="m 11.78628,11.779238 4.23669,0 0,4.23669 -4.23669,0 z m -5.8612851,0 4.2366901,0 0,4.23669 -4.2366901,0 z m -5.9249949,0 4.23669,0 0,4.23669 -4.23669,0 z m 11.78628,-5.8931406 4.23669,0 0,4.2366896 -4.23669,0 z m -5.8612851,0 4.2366901,0 0,4.2366896 -4.2366901,0 z m -5.9249949,0 4.23669,0 0,4.2366896 -4.23669,0 z m 11.78628,-5.8931398 4.23669,0 0,4.23669 -4.23669,0 z m -5.8612851,0 4.2366901,0 0,4.23669 -4.2366901,0 z m -5.9249949,0 4.23669,0 0,4.23669 -4.23669,0 z"  
		
	/>

</svg>