<svg width="14.3600008" height="13.6567992" viewBox="0 0 35.900002 34.141998"  version="1.1" xmlns="http://www.w3.org/2000/svg">


	
  <g 
     transform="translate(-233.47857,-346.71975)" style="fill:#b5b5b5;">
    <g
       transform="translate(230.63957,338.36175)">
      <path 
         d="M 20.789,8.358 25.097,20.733 38.739,20.83 28.199,29.176 32.345,42.5 20.788,34.561 9.232,42.5 13.11,28.998 2.839,20.83 16.481,20.733 20.789,8.358 m 0,6.084 -2.419,6.948 -0.464,1.333 -1.411,0.01 -7.978,0.057 5.839,4.644 1.047,0.832 -0.369,1.286 -2.34,8.146 6.963,-4.784 1.132,-0.778 1.132,0.778 6.799,4.671 -2.432,-7.813 -0.408,-1.312 1.076,-0.852 6.085,-4.819 -7.959,-0.057 -1.411,-0.01 -0.464,-1.333 -2.418,-6.947 0,0 z" />
    </g>
  </g>

</svg>