<svg width="16" height="16" viewBox="0 0 16 16"  version="1.1" xmlns="http://www.w3.org/2000/svg" xmlns:xlink="http://www.w3.org/1999/xlink">


	<path d="M 4.4908724,14.284522 C 3.2408788,14.209491 2.0193532,13.881455 0.90381684,13.321233 0.56684775,13.152008 0.06608256,12.869975 0.07923293,12.856824 c 0.0026063,-0.0026 0.16622605,0.0055 0.36359954,0.01794 0.57050113,0.03606 1.24177563,-0.01821 1.80971723,-0.146304 0.8663992,-0.195404 1.6967787,-0.568872 2.4058209,-1.082029 L 4.8830571,11.483819 4.701313,11.469915 C 3.5348848,11.38068 2.5117205,10.689677 2.0024983,9.647247 1.9184573,9.4752063 1.8239239,9.2354492 1.8364017,9.2259903 c 0.00266,-0.00201 0.095226,0.00867 0.2057074,0.023743 0.2698363,0.036815 0.7225901,0.021957 1.0043756,-0.03296 C 3.162227,9.194216 3.2635015,9.1693787 3.271539,9.161579 3.2795767,9.1537793 3.2193142,9.1317519 3.1376223,9.1126294 2.7556751,9.0232223 2.3308591,8.8212129 1.9942817,8.5689461 1.2201966,7.9887641 0.73507505,7.0900156 0.68917061,6.1510635 c -0.006044,-0.1236339 -0.007157,-0.2247888 -0.002472,-0.2247888 0.004684,0 0.0770251,0.03358 0.16075685,0.074621 0.19946502,0.097769 0.49395422,0.1993993 0.71813682,0.2478337 0.2582344,0.055791 0.618947,0.090093 0.570578,0.054259 C 1.6443433,5.9386159 1.3148483,5.565444 1.0785285,5.1051498 0.66263775,4.2950942 0.59175451,3.4042821 0.87555195,2.5542796 0.93615421,2.3727696 1.1057756,1.9985993 1.1357393,1.9803284 c 0.00923,-0.00563 0.089956,0.076211 0.1793932,0.1818628 C 1.9045169,2.85843 2.7406169,3.5599923 3.6012826,4.0804744 3.8673914,4.241402 4.6201246,4.6124948 4.921319,4.7312443 5.7937393,5.0752062 6.7590485,5.294844 7.7000914,5.363501 7.9030539,5.378309 7.8894588,5.3959845 7.8484583,5.1706016 7.8331455,5.0864254 7.8149847,4.9056378 7.808101,4.7688514 7.7379837,3.3755369 8.5865796,2.0821099 9.9048508,1.572993 10.090242,1.5013949 10.378267,1.4258287 10.603215,1.3897703 c 0.225148,-0.036091 0.761536,-0.030092 0.99481,0.011126 0.650119,0.1148704 1.215585,0.3941201 1.704903,0.8419495 l 0.162809,0.1490047 0.223567,-0.052522 c 0.513241,-0.1205732 1.008811,-0.3056474 1.510468,-0.5640944 0.163785,-0.08438 0.300996,-0.150211 0.304915,-0.1462922 0.0039,0.00392 -0.01471,0.065126 -0.04139,0.1360152 -0.08578,0.2278924 -0.276939,0.5732953 -0.430234,0.7773811 -0.18198,0.2422738 -0.505254,0.5574783 -0.743169,0.7246167 -0.09726,0.06833 -0.168556,0.1269979 -0.158427,0.1303743 0.03281,0.010936 0.495219,-0.073832 0.763604,-0.1399818 0.291914,-0.071949 0.657106,-0.1903745 0.890142,-0.2886564 0.08491,-0.03581 0.157112,-0.065109 0.160454,-0.065109 0.01582,0 -0.173521,0.2601028 -0.346929,0.4765938 -0.249945,0.3120452 -0.684094,0.7436462 -0.999747,0.9938801 l -0.250098,0.1982647 -0.01141,0.5287119 c -0.01534,0.7104997 -0.07869,1.2620238 -0.214545,1.8677565 -0.629669,2.8074888 -2.419008,5.1553355 -4.8588884,6.3754945 -1.4096895,0.704972 -3.1106464,1.040033 -4.7731752,0.940238 z"  
		style="fill:#fff;"
	/>

</svg>