<svg width="16" height="16" viewBox="0 0 16 16"  version="1.1" xmlns="http://www.w3.org/2000/svg" xmlns:xlink="http://www.w3.org/1999/xlink">


	<path id="asd" d="m 5.0844287,12.470221 c 0.2326077,0.0355 0.5376405,0.06674 0.9150993,0.09372 0.3774551,0.02698 0.8222237,0.04118 1.334307,0.0426 0.9079949,-0.0014 1.6549561,-0.07356 2.2408858,-0.21642 0.5859192,-0.14286 1.0431842,-0.347919 1.3717972,-0.615178 0.290257,-0.232041 0.520878,-0.510944 0.691863,-0.836712 0.17097,-0.325764 0.258447,-0.696689 0.262431,-1.112774 C 11.890295,9.2301696 11.717046,8.7405265 11.381062,8.3565333 11.045064,7.9725484 10.609384,7.7078459 10.074021,7.5624249 l 0,-0.027265 C 10.590356,7.3374896 10.972073,7.0648346 11.219173,6.7171935 11.46626,6.3695639 11.588955,5.9878469 11.587258,5.5720411 11.581286,5.154545 11.477337,4.793277 11.275409,4.4882361 11.073466,4.1832111 10.809332,3.9446381 10.483004,3.7725161 10.156948,3.5779741 9.7797748,3.4422146 9.3514844,3.3652371 8.9231836,3.2882778 8.3960506,3.2513558 7.7700835,3.254471 7.2389709,3.2556165 6.7300148,3.2737935 6.2432138,3.309002 5.7564086,3.344229 5.3701473,3.3896715 5.0844287,3.4453297 c -0.022525,-0.2477723 0,9.0248913 0,9.0248913 z M 7.1429763,4.822239 C 7.2293141,4.808046 7.3429204,4.7955492 7.4837955,4.7847487 7.6246639,4.7739637 7.806434,4.7682834 8.0291061,4.767708 8.5019882,4.7685678 8.8649602,4.8588848 9.1180232,5.0386593 9.3710763,5.2184486 9.4988833,5.4825832 9.5014448,5.8310637 9.4997355,6.1764334 9.3565915,6.4502245 9.0720125,6.6524376 8.7874236,6.8546625 8.3716248,6.9580443 7.8246146,6.9625832 l -0.6816383,0 z m 0,3.6263157 0.7089038,0 c 0.5311057,-0.00397 0.971898,0.096001 1.3223783,0.2999208 0.3504703,0.2039271 0.5322404,0.5356574 0.5453106,0.9951919 -0.015058,0.4785696 -0.1928523,0.8199556 -0.5333822,1.0241616 -0.34054,0.204209 -0.7534986,0.303614 -1.2388773,0.298217 -0.1758097,5.69e-4 -0.3286101,-5.67e-4 -0.4584019,-0.0034 -0.1297983,-0.0028 -0.2451086,-0.01079 -0.3459313,-0.02386 z m -4.0052775,-8.41860436 9.7220962,0 c 1.729462,0 3.121772,1.39231006 3.121772,3.12177136 l 0,9.7220963 c 0,1.729461 -1.39231,3.121771 -3.121772,3.121771 l -9.7220962,0 c -1.7294613,0 -3.12177136,-1.39231 -3.12177136,-3.121771 l 0,-9.7220963 c 0,-1.7294613 1.39231006,-3.12177136 3.12177136,-3.12177136 z"  
		
	/>

</svg>