<svg width="16" height="16" viewBox="0 0 16 16"  version="1.1" xmlns="http://www.w3.org/2000/svg" xmlns:xlink="http://www.w3.org/1999/xlink">


	<path d="m 13.705718,0.76405858 1.635185,1.56336892 c 0,0 0.362525,-0.3460251 0.535853,-0.5910971 0.173328,-0.245072 0.129915,-0.5917119 -0.06629,-0.80654367 C 15.571588,0.6682244 15.289763,0.4113568 15.053641,0.22267995 14.817519,0.0340031 14.499756,0.00884187 14.307864,0.18401005 14.115972,0.35917823 13.705718,0.76405858 13.705718,0.76405858 z M 13.25,1.203125 l -7.609375,7.5625 -0.046875,1.6875 1.71875,0.01563 7.578125,-7.625 L 14.367187,2.346986 6.8801317,9.8791839 6.359375,9.703125 6.265625,9.1640625 13.734375,1.71875 z m -0.765625,4.429687 0.679687,0 0,10.339844 -13.09765575,0 0,-13.101562 9.99999975,0 0,0.691406 -9.31249975,0 0,11.734375 11.73046875,0 z"  
	style="fill:#f70080;"
	/>

</svg>